<?xml version="1.0" encoding="UTF-8"?>
<svg xmlns="http://www.w3.org/2000/svg" viewBox="0 0 512 530" width="512" height="530">
<path d="M248.11 0.08C254.61 0.08 261.11 0.08 267.62 0.08C268.27 0.77 268.93 1.45 269.59 2.14C268.99 6.86 262.46 10.97 259.12 14.06C250.74 21.8 243.07 30.54 236.23 39.65C217.03 65.2 204.18 94.17 197.22 125.27C169.46 249.38 263.72 372.99 389.59 381.88C417.98 383.89 446.79 380.8 473.75 371.85C482.21 369.04 490.44 365.61 498.52 361.89C503.14 359.76 506.93 356.59 511.92 358.05C511.92 359.46 511.92 360.87 511.92 362.28C509.34 364.48 508.21 370.71 506.74 373.85C502.47 382.98 498 392.13 492.72 400.75C477.27 426.05 457.97 450.07 434.65 468.67C404.91 492.4 371.33 511.33 334.37 520.89C322.75 523.9 310.9 526.38 298.96 527.91C293.89 528.56 284.73 528.02 280.44 529.99C269.99 529.99 259.54 529.99 249.1 529.99C245.73 528.39 228.94 527.79 223.65 526.89C207.51 524.15 191.58 520.31 176.17 514.81C110.94 491.56 56.88 442.5 26.32 380.41C16.63 360.72 9.4 339.34 5.18 317.8C3.51 309.29 2.54 300.71 1.31 292.13C0.82 288.72 1.58 284.46 0.08 281.37C0.08 270.6 0.08 259.84 0.08 249.08C1.41 246.14 0.87 242.32 1.19 239.13C1.92 231.95 2.77 224.56 4.24 217.49C8.59 196.63 14.51 176.49 23.16 157.01C52.33 91.3 110.48 37.48 178.5 14.18C192.68 9.33 207.36 5.49 222.21 3.16C227.97 2.25 244.1 1.78 248.11 0.08Z" fill="#000000" fill-rule="evenodd" stroke="#000000" stroke-width="0.25" stroke-linejoin="round"/>
</svg>